<?xml version="1.0" standalone="no"?>
<!DOCTYPE svg PUBLIC "-//W3C//DTD SVG 20010904//EN"
 "http://www.w3.org/TR/2001/REC-SVG-20010904/DTD/svg10.dtd">
<svg version="1.0" xmlns="http://www.w3.org/2000/svg"
 width="160.000000pt" height="140.000000pt" viewBox="0 0 160.000000 140.000000"
 preserveAspectRatio="xMidYMid meet">

<g transform="translate(0.000000,140.000000) scale(0.100000,-0.100000)"
fill="#000000" stroke="none">
<path d="M647 1380 c-143 -36 -246 -99 -354 -214 -128 -137 -190 -306 -181
-496 10 -190 69 -322 207 -461 73 -73 101 -93 181 -132 189 -91 361 -100 564
-28 129 45 287 183 359 312 63 113 82 195 82 344 -1 115 -4 139 -29 210 -74
216 -237 379 -447 449 -114 39 -269 45 -382 16z m301 -85 c203 -48 383 -223
437 -425 19 -72 19 -248 0 -320 -23 -86 -75 -179 -137 -246 -32 -34 -58 -68
-58 -75 -1 -8 -7 2 -14 21 -7 19 -16 42 -20 51 -5 10 11 32 49 68 40 38 54 58
49 70 -4 9 -6 49 -5 89 2 58 -2 82 -19 115 -46 89 -106 127 -205 127 -78 0
-132 -25 -179 -83 -47 -58 -71 -150 -49 -191 10 -19 11 -31 3 -46 -12 -23 2
-60 24 -60 7 0 31 -17 53 -38 l40 -38 -19 -25 c-10 -13 -24 -53 -30 -87 l-12
-64 -38 148 c-21 81 -43 153 -49 160 -8 10 -59 26 -94 28 -13 1 -19 36 -6 36
5 0 22 11 37 25 15 14 34 25 42 25 10 0 12 7 8 24 -4 18 -1 25 13 29 14 3 17
11 14 31 -5 22 -1 28 27 38 l33 11 -32 26 -33 27 51 24 c28 13 51 27 51 30 0
4 -15 13 -32 21 -18 7 -35 14 -37 16 -3 2 13 21 34 43 l38 39 -52 7 -51 7 29
53 c16 30 28 54 26 54 -1 0 -22 -7 -45 -15 -23 -8 -46 -12 -51 -9 -5 3 -9 30
-9 60 0 66 -13 70 -71 17 l-41 -37 -37 42 c-41 48 -51 52 -51 18 0 -12 -5 -37
-11 -54 l-11 -32 -35 15 c-58 25 -64 21 -48 -26 20 -56 19 -59 -12 -59 -16 0
-45 -3 -65 -6 l-38 -7 35 -38 c19 -22 35 -43 35 -48 0 -5 -19 -24 -42 -42
l-41 -33 30 -8 c16 -4 38 -17 48 -28 18 -20 18 -21 -10 -50 -32 -33 -32 -33
10 -47 27 -9 30 -14 27 -47 -3 -34 -1 -36 28 -36 24 0 30 -4 30 -21 0 -17 4
-20 22 -16 25 7 81 -19 76 -35 -3 -7 -30 -20 -61 -31 l-57 -19 -20 -71 c-12
-40 -23 -79 -26 -87 -8 -23 -77 62 -118 145 -119 241 -77 514 109 700 76 76
181 137 277 160 72 18 210 18 286 0z m-212 -1025 c-14 -17 -26 -29 -26 -25 0
10 44 63 49 59 2 -2 -8 -17 -23 -34z"/>
</g>
</svg>
